<svg width="26" height="26" viewBox="0 0 26 26" fill="none" xmlns="http://www.w3.org/2000/svg">
<path d="M11.7207 23.0121L5.1804 19.1787C4.79373 18.9347 4.4884 18.6228 4.2644 18.2431C4.0404 17.8633 3.9284 17.4447 3.9284 16.9874V9.37006C3.9284 8.91273 4.0404 8.49417 4.2644 8.1144C4.4884 7.73462 4.79373 7.41529 5.1804 7.1564L11.7427 3.29573C12.1392 3.0724 12.5581 2.96073 12.9994 2.96073C13.441 2.96073 13.8676 3.0724 14.2794 3.29573L20.8421 7.1564C21.2138 7.41529 21.5117 7.73462 21.7357 8.1144C21.9597 8.49417 22.0717 8.91273 22.0717 9.37006V16.9874C22.0717 17.4447 21.9644 17.8633 21.7497 18.2431C21.5348 18.6228 21.2248 18.9347 20.8197 19.1787L14.2471 23.0121C13.8246 23.2616 13.3956 23.3864 12.9601 23.3864C12.5245 23.3864 12.1114 23.2616 11.7207 23.0121ZM1.14106 7.02306C0.908396 7.02306 0.708174 6.93951 0.540396 6.7724C0.37284 6.60506 0.289062 6.40806 0.289062 6.1814V2.8154C0.289062 2.11051 0.533951 1.51329 1.02373 1.02373C1.51328 0.533953 2.11051 0.289062 2.8154 0.289062H6.1814C6.41451 0.289062 6.61673 0.373174 6.78806 0.541396C6.95962 0.709841 7.04539 0.910396 7.04539 1.14306C7.04539 1.37551 6.95962 1.57562 6.78806 1.7434C6.61673 1.91117 6.41451 1.99506 6.1814 1.99506H2.8154C2.57606 1.99506 2.37951 2.07195 2.22573 2.22573C2.07195 2.37951 1.99506 2.57606 1.99506 2.8154V6.1814C1.99506 6.40806 1.91084 6.60506 1.7424 6.7724C1.57395 6.93951 1.37351 7.02306 1.14106 7.02306ZM2.8154 25.7111C2.11051 25.7111 1.51328 25.4662 1.02373 24.9764C0.533951 24.4868 0.289062 23.8896 0.289062 23.1847V19.8187C0.289062 19.5856 0.374618 19.3834 0.545729 19.2121C0.716618 19.0405 0.918396 18.9547 1.15106 18.9547C1.38373 18.9547 1.58251 19.0405 1.7474 19.2121C1.91251 19.3834 1.99506 19.5856 1.99506 19.8187V23.1847C1.99506 23.4241 2.07195 23.6206 2.22573 23.7744C2.37951 23.9282 2.57606 24.0051 2.8154 24.0051H6.1814C6.41451 24.0051 6.61673 24.0893 6.78806 24.2577C6.95962 24.4262 7.04539 24.6266 7.04539 24.8591C7.04539 25.0917 6.95962 25.292 6.78806 25.4597C6.61673 25.6273 6.41451 25.7111 6.1814 25.7111H2.8154ZM23.1847 25.7111H19.8187C19.5921 25.7111 19.3951 25.6255 19.2277 25.4544C19.0606 25.2835 18.9771 25.0817 18.9771 24.8491C18.9771 24.6164 19.0606 24.4176 19.2277 24.2527C19.3951 24.0876 19.5921 24.0051 19.8187 24.0051H23.1847C23.4241 24.0051 23.6206 23.9282 23.7744 23.7744C23.9282 23.6206 24.0051 23.4241 24.0051 23.1847V19.8187C24.0051 19.5856 24.0906 19.3834 24.2617 19.2121C24.4328 19.0405 24.6347 18.9547 24.8674 18.9547C25.1001 18.9547 25.2988 19.0405 25.4637 19.2121C25.6286 19.3834 25.7111 19.5856 25.7111 19.8187V23.1847C25.7111 23.8896 25.4662 24.4868 24.9764 24.9764C24.4868 25.4662 23.8896 25.7111 23.1847 25.7111ZM24.0051 6.1814V2.8154C24.0051 2.57606 23.9282 2.37951 23.7744 2.22573C23.6206 2.07195 23.4241 1.99506 23.1847 1.99506H19.8187C19.5921 1.99506 19.3951 1.90951 19.2277 1.7384C19.0606 1.56729 18.9771 1.3654 18.9771 1.13273C18.9771 0.900062 19.0606 0.701286 19.2277 0.536397C19.3951 0.371508 19.5921 0.289062 19.8187 0.289062H23.1847C23.8896 0.289062 24.4868 0.533953 24.9764 1.02373C25.4662 1.51329 25.7111 2.11051 25.7111 2.8154V6.1814C25.7111 6.40806 25.627 6.60506 25.4587 6.7724C25.2903 6.93951 25.0897 7.02306 24.8571 7.02306C24.6246 7.02306 24.4245 6.93951 24.2567 6.7724C24.089 6.60506 24.0051 6.40806 24.0051 6.1814ZM6.45806 8.3504L5.6394 8.82573V9.93006L12.1694 13.6344V21.2411L13.0334 21.7581L13.8754 21.2411V13.6344L20.3657 9.93006V8.82573L19.5421 8.3504L13.0001 12.1061L6.45806 8.3504Z" fill="#404040"/>
</svg>
