<svg width="254" height="114" viewBox="0 0 254 114" fill="none" xmlns="http://www.w3.org/2000/svg">
<ellipse cx="218.386" cy="35.7832" rx="35.614" ry="35.6141" fill="#8AD5FD"/>
<rect x="169.439" y="28.8337" width="8.59933" height="15.7654" rx="3" fill="#1098E2"/>
<path d="M153.675 28.8337H161.707C162.812 28.8337 163.707 29.7292 163.707 30.8337V42.5992C163.707 43.7038 162.812 44.5992 161.707 44.5992H153.675V28.8337Z" fill="#1098E2"/>
<path d="M122.317 0.169189C141.986 0.169307 157.931 16.1144 157.931 35.7834C157.931 55.4524 141.986 71.3976 122.317 71.3977C105.472 71.3977 91.3593 59.702 87.6538 43.9885H70.5962C66.8907 59.7019 52.779 71.3976 35.9341 71.3977C16.2651 71.3977 0.319933 55.4525 0.319824 35.7834C0.319824 16.1143 16.265 0.169189 35.9341 0.169189C53.2247 0.169293 67.6359 12.4915 70.8687 28.8333H87.3823C90.6151 12.4914 105.026 0.169189 122.317 0.169189Z" fill="#1098E2"/>
<path d="M13.6636 54.7267L32.2814 13.3538H39.8467L58.5236 54.7267H50.4855L34.4682 17.4319H37.5417L21.5835 54.7267H13.6636ZM22.2337 45.1518L24.3023 39.1232H46.6437L48.7123 45.1518H22.2337Z" fill="white"/>
<path d="M119.537 56.2423V14.8694H127.221V56.2423H119.537Z" fill="white"/>
<path d="M201.967 55.4845V14.1116H218.989C222.653 14.1116 225.786 14.7026 228.387 15.8847C231.027 17.0668 233.056 18.7611 234.474 20.9677C235.893 23.1742 236.602 25.7945 236.602 28.8285C236.602 31.8625 235.893 34.4828 234.474 36.6894C233.056 38.8565 231.027 40.5311 228.387 41.7132C225.786 42.8559 222.653 43.4272 218.989 43.4272H206.223L209.651 39.9401V55.4845H201.967ZM229.037 55.4845L218.575 40.472H226.791L237.311 55.4845H229.037ZM209.651 40.7676L206.223 37.1031H218.634C222.023 37.1031 224.565 36.3741 226.259 34.9162C227.993 33.4583 228.859 31.4291 228.859 28.8285C228.859 26.1885 227.993 24.1593 226.259 22.7408C224.565 21.3223 222.023 20.613 218.634 20.613H206.223L209.651 16.8304V40.7676Z" fill="white"/>
<path d="M224.383 113.831V79.3535H232.362V107.329H249.65V113.831H224.383Z" fill="black"/>
<path d="M190.153 93.243H206.751V99.4489H190.153V93.243ZM190.744 107.428H209.51V113.831H182.814V79.3535H208.869V85.7565H190.744V107.428Z" fill="black"/>
<path d="M148.607 113.831L133.732 79.3535H142.352L155.354 109.891H150.281L163.481 79.3535H171.411L156.487 113.831H148.607Z" fill="black"/>
<path d="M90.8892 113.831L106.256 79.3535H114.137L129.553 113.831H121.18L108.571 83.3923H111.723L99.0652 113.831H90.8892ZM98.5727 106.443L100.691 100.385H118.422L120.589 106.443H98.5727Z" fill="black"/>
<path d="M50.6775 113.831V79.3535H65.6013C68.6878 79.3535 71.3475 79.8625 73.5804 80.8804C75.8132 81.8654 77.5371 83.2938 78.752 85.1654C79.9669 87.0371 80.5743 89.2699 80.5743 91.8639C80.5743 94.4251 79.9669 96.6415 78.752 98.5131C77.5371 100.352 75.8132 101.764 73.5804 102.749C71.3475 103.734 68.6878 104.227 65.6013 104.227H55.1103L58.6566 100.73V113.831H50.6775ZM72.5953 113.831L63.9759 101.321H72.4968L81.2146 113.831H72.5953ZM58.6566 101.616L55.1103 97.8728H65.158C67.6207 97.8728 69.4595 97.3475 70.6744 96.2967C71.8893 95.2131 72.4968 93.7355 72.4968 91.8639C72.4968 89.9594 71.8893 88.4818 70.6744 87.4311C69.4595 86.3803 67.6207 85.855 65.158 85.855H55.1103L58.6566 82.0625V101.616Z" fill="black"/>
<path d="M18.8475 113.831V85.855H7.8147V79.3535H37.8593V85.855H26.8265V113.831H18.8475Z" fill="black"/>
</svg>
