<svg width="22" height="27" viewBox="0 0 22 27" fill="none" xmlns="http://www.w3.org/2000/svg">
<path d="M1.81957 22.7367C1.57823 22.7367 1.3739 22.6512 1.20657 22.4801C1.03923 22.3089 0.955566 22.1072 0.955566 21.8747C0.955566 21.642 1.03923 21.4433 1.20657 21.2784C1.3739 21.1133 1.57823 21.0307 1.81957 21.0307H3.10923V10.1794C3.10923 8.31761 3.69012 6.65672 4.8519 5.19672C6.0139 3.73694 7.51512 2.81183 9.35557 2.42138V1.94438C9.35557 1.50372 9.51534 1.11949 9.8349 0.791716C10.1547 0.463938 10.5429 0.300049 10.9996 0.300049C11.4562 0.300049 11.8446 0.463938 12.1646 0.791716C12.4843 1.11949 12.6442 1.50372 12.6442 1.94438V2.43005C14.4847 2.81472 15.9915 3.73183 17.1646 5.18138C18.3375 6.63094 18.9239 8.29694 18.9239 10.1794V21.0307H20.2136C20.4467 21.0307 20.649 21.1149 20.8206 21.2834C20.9919 21.4518 21.0776 21.6523 21.0776 21.8847C21.0776 22.1174 20.9919 22.3176 20.8206 22.4854C20.649 22.6529 20.4467 22.7367 20.2136 22.7367H1.81957ZM10.9942 26.4907C10.3269 26.4907 9.75757 26.2537 9.28623 25.7797C8.8149 25.3057 8.57923 24.7358 8.57923 24.07H13.4206C13.4206 24.7483 13.1829 25.3213 12.7076 25.789C12.2325 26.2568 11.6613 26.4907 10.9942 26.4907ZM4.81523 21.0307H17.2179V10.1794C17.2179 8.46827 16.6085 7.00983 15.3896 5.80405C14.1707 4.59805 12.7066 3.99505 10.9972 3.99505C9.2879 3.99505 7.83023 4.59805 6.62423 5.80405C5.41823 7.00983 4.81523 8.46827 4.81523 10.1794V21.0307Z" fill="#404040"/>
</svg>
