<svg width="24" height="24" viewBox="0 0 24 24" fill="none" xmlns="http://www.w3.org/2000/svg">
  <path d="M3.5 12L20.5 3.5L16 12L20.5 20.5L3.5 12Z" stroke="#007AFF" stroke-width="1.8" fill="#E6F0FF" stroke-linejoin="round"/>
  <path d="M16 12H9.5" stroke="#007AFF" stroke-width="1.8" stroke-linecap="round"/>
</svg>
<svg width="25" height="22" viewBox="0 0 25 22" fill="none" xmlns="http://www.w3.org/2000/svg">
<path d="M2.26893 21.3796C1.74198 21.6159 1.24129 21.5836 0.766843 21.2825C0.292398 20.9816 0.0551758 20.5389 0.0551758 19.9541V13.2383L10.2435 10.8887L0.0551758 8.47747V1.82997C0.0551758 1.27803 0.292398 0.851638 0.766843 0.550805C1.24129 0.249694 1.74198 0.201083 2.26893 0.404971L23.631 9.43789C24.238 9.71095 24.5414 10.2059 24.5414 10.9229C24.5414 11.6396 24.238 12.1211 23.631 12.3675L2.26893 21.3796Z" fill="#1098E2"/>
</svg>
