<svg width="32" height="32" viewBox="0 0 32 32" fill="none" xmlns="http://www.w3.org/2000/svg">
<path d="M15.4863 29.3776L21.6077 13.0222H24.5043L30.6257 29.3776H28.183L26.8143 25.8769H19.1863L17.8263 29.3776H15.4863ZM19.9863 23.6889H26.0147L23.0103 15.8459L19.9863 23.6889Z" fill="#404040"/>
<path d="M17.5918 7.05103V9.11743H11.3135V9.75513C11.3136 11.5319 12.2157 13.1166 13.583 14.3782C14.9504 15.6397 16.7815 16.577 18.6338 17.0588L18.6611 17.0657L18.6504 17.092L17.791 19.1243L17.7832 19.1438L17.7627 19.1389C14.1472 18.2781 11.3585 15.9898 10.0781 13.635C8.73876 15.9626 5.72316 18.3929 2.25098 19.2825L2.23145 19.2883L2.22266 19.2698L1.18555 17.2542L1.17188 17.2268L1.20117 17.219C3.09895 16.7014 4.98929 15.7595 6.4043 14.4954C7.81926 13.2312 8.75781 11.6461 8.75781 9.84106V9.11743H2.30664V7.05103H17.5918ZM14.251 3.42212V5.48853H5.7627V3.42212H14.251Z" fill="#404040" stroke="black" stroke-width="0.05"/>
</svg>
